<?xml version="1.0" encoding="utf-8"?>
<svg version="1.1" xmlns:xlink="http://www.w3.org/1999/xlink" width="40px" height="50px" xmlns="http://www.w3.org/2000/svg">
  <defs>
    <filter x="331px" y="395px" width="40px" height="50px" filterUnits="userSpaceOnUse" id="filter39">
      <feOffset dx="1" dy="1" in="SourceAlpha" result="shadowOffsetInner" />
      <feGaussianBlur stdDeviation="2.5" in="shadowOffsetInner" result="shadowGaussian" />
      <feComposite in2="shadowGaussian" operator="atop" in="SourceAlpha" result="shadowComposite" />
      <feColorMatrix type="matrix" values="0 0 0 0 0  0 0 0 0 0  0 0 0 0 0  0 0 0 0.698039215686274 0  " in="shadowComposite" />
    </filter>
    <g id="widget40">
      <path d="M 350 438.036928468354  C 344.2 428.40734059591  335.5 422.629587872444  335.5 413  C 335.5 407.985714285714  338.4 399.5  350 399.5  C 361.6 399.5  364.5 407.985714285714  364.5 413  C 364.5 422.629587872444  355.8 428.40734059591  350 438.036928468354  Z " fill-rule="nonzero" fill="#3fc5fb" stroke="none" />
      <path d="M 350 439  C 344 429  335 423  335 413  C 335 407.8  338 399  350 399  C 362 399  365 407.8  365 413  C 365 423  356 429  350 439  Z M 350 437.073856936707  C 355.6 427.81468119182  364 422.259175744887  364 413  C 364 408.171428571429  361.2 400  350 400  C 338.8 400  336 408.171428571429  336 413  C 336 422.259175744887  344.4 427.81468119182  350 437.073856936707  Z " fill-rule="nonzero" fill="#ffffff" stroke="none" />
    </g>
  </defs>
  <g transform="matrix(1 0 0 1 -331 -395 )">
    <use xlink:href="#widget40" filter="url(#filter39)" />
    <use xlink:href="#widget40" />
  </g>
</svg>