<?xml version="1.0" encoding="utf-8"?>
<svg version="1.1" xmlns:xlink="http://www.w3.org/1999/xlink" width="22px" height="8px" xmlns="http://www.w3.org/2000/svg">
  <g transform="matrix(1 0 0 1 -221 -85 )">
    <path d="M 21.7795591182365 0.824742268041237  C 21.9265197060788 0.916380297823594  22 1.02176403207331  22 1.14089347079038  C 22 1.26002290950744  21.9265197060788 1.36540664375716  21.7795591182365 1.45704467353952  L 11.5070140280561 7.86254295532646  C 11.3600534402138 7.95418098510882  11.1910487641951 8  11 8  C 10.8089512358049 8  10.6399465597862 7.95418098510882  10.4929859719439 7.86254295532646  L 0.220440881763527 1.45704467353952  C 0.0734802939211759 1.36540664375716  0 1.26002290950744  0 1.14089347079038  C 0 1.02176403207331  0.0734802939211759 0.916380297823594  0.220440881763527 0.824742268041237  L 1.32264529058116 0.13745704467354  C 1.46960587842351 0.0458190148911788  1.63861055444222 0  1.82965931863727 0  C 2.02070808283233 0  2.18971275885104 0.0458190148911788  2.33667334669339 0.13745704467354  L 11 5.53951890034364  L 19.6633266533066 0.13745704467354  C 19.810287241149 0.0458190148911788  19.9792919171677 0  20.1703406813627 0  C 20.3613894455578 0  20.5303941215765 0.0458190148911788  20.6773547094188 0.13745704467354  L 21.7795591182365 0.824742268041237  Z " fill-rule="nonzero" fill="#333333" stroke="none" transform="matrix(1 0 0 1 221 85 )" />
  </g>
</svg>