<?xml version="1.0" encoding="utf-8"?>
<svg version="1.1" xmlns:xlink="http://www.w3.org/1999/xlink" width="22px" height="8px" xmlns="http://www.w3.org/2000/svg">
  <g transform="matrix(1 0 0 1 -221 -70 )">
    <path d="M 21.7795591182365 6.54295532646048  C 21.9265197060788 6.63459335624284  22 6.73997709049255  22 6.85910652920962  C 22 6.97823596792669  21.9265197060788 7.0836197021764  21.7795591182365 7.17525773195876  L 20.6773547094188 7.86254295532646  C 20.5303941215765 7.95418098510882  20.3613894455578 8  20.1703406813627 8  C 19.9792919171677 8  19.810287241149 7.95418098510882  19.6633266533066 7.86254295532646  L 11 2.46048109965636  L 2.33667334669339 7.86254295532646  C 2.18971275885104 7.95418098510882  2.02070808283233 8  1.82965931863727 8  C 1.63861055444222 8  1.46960587842351 7.95418098510882  1.32264529058116 7.86254295532646  L 0.220440881763527 7.17525773195876  C 0.0734802939211759 7.0836197021764  0 6.97823596792669  0 6.85910652920962  C 0 6.73997709049255  0.0734802939211759 6.63459335624284  0.220440881763527 6.54295532646048  L 10.4929859719439 0.13745704467354  C 10.6399465597862 0.0458190148911788  10.8089512358049 0  11 0  C 11.1910487641951 0  11.3600534402138 0.0458190148911788  11.5070140280561 0.13745704467354  L 21.7795591182365 6.54295532646048  Z " fill-rule="nonzero" fill="#333333" stroke="none" transform="matrix(1 0 0 1 221 70 )" />
  </g>
</svg>